PathFileType	4	(X/Y/Z)	/Users/itak/Documents/Research/Walk-IL/dataset/trc/00285_00010.trc
DataRate	CameraRate	NumFrames	NumMarkers	Units	OrigDataRate	OrigDataStartFrame	OrigNumFrames
100.000000	100.000000	4	54	mm	100.000000	453	604
Frame#	Time	RPSI			LPSI			L3			STRN			T10			C7			CLAV			RBAK			LBAK			LSHO			LUPA			LAEL			LAOL			LWTS			LWPS			LFRA			LIFD			LHPS			LHTS			RSHO			RUPA			RAEL			RAOL			RWTS			RWPS			RFRA			RHTS			RHPS			RBHD			LFHD			RFHD			LBHD			LHIP			RASI			LASI			LKNE			LTHI			LANK			LTIP			LTOE			LMT1			LMT5			LHEE			RKNE			RTHI			RANK			RTIP			RTOE			RMT1			RMT5			RHEE			RIFD			RHIP			*53			
		X1	Y1	Z1	X2	Y2	Z2	X3	Y3	Z3	X4	Y4	Z4	X5	Y5	Z5	X6	Y6	Z6	X7	Y7	Z7	X8	Y8	Z8	X9	Y9	Z9	X10	Y10	Z10	X11	Y11	Z11	X12	Y12	Z12	X13	Y13	Z13	X14	Y14	Z14	X15	Y15	Z15	X16	Y16	Z16	X17	Y17	Z17	X18	Y18	Z18	X19	Y19	Z19	X20	Y20	Z20	X21	Y21	Z21	X22	Y22	Z22	X23	Y23	Z23	X24	Y24	Z24	X25	Y25	Z25	X26	Y26	Z26	X27	Y27	Z27	X28	Y28	Z28	X29	Y29	Z29	X30	Y30	Z30	X31	Y31	Z31	X32	Y32	Z32	X33	Y33	Z33	X34	Y34	Z34	X35	Y35	Z35	X36	Y36	Z36	X37	Y37	Z37	X38	Y38	Z38	X39	Y39	Z39	X40	Y40	Z40	X41	Y41	Z41	X42	Y42	Z42	X43	Y43	Z43	X44	Y44	Z44	X45	Y45	Z45	X46	Y46	Z46	X47	Y47	Z47	X48	Y48	Z48	X49	Y49	Z49	X50	Y50	Z50	X51	Y51	Z51	X52	Y52	Z52	X53	Y53	Z53	X54	Y54	Z54	

454	4.53	-750.9281005859375	993.433837890625	190.8012847900391	-575.398681640625	988.4749755859375	179.0708618164062	-656.6172485351562	1062.921020507812	201.6532287597656	-625.2437744140625	1240.07568359375	445.3863830566406	-653.25634765625	1175.94384765625	180.8251342773438	-606.7864990234375	1417.906127929688	219.8250274658203	-613.634033203125	1337.498046875	378.5363464355469	-702.3898315429688	1292.322875976562	173.5692749023438	-509.5692443847656	1368.319458007812	195.6497650146484	-453.697509765625	1366.130737304688	283.2008361816406	-393.0779113769531	1245.273071289062	255.7310638427734	-385.2181396484375	1044.423828125	270.0482788085938	-442.1425476074219	1029.22412109375	204.5114440917969	-441.8918762207031	847.6927490234375	383.681640625	-378.1753234863281	826.5191650390625	354.6939697265625	-380.7079162597656	946.4149169921875	298.9971923828125	-448.75390625	664.8101806640625	425.6718444824219	-385.3960571289062	741.1311645507812	377.4459838867188	-426.2478637695312	755.6199340820312	426.9151611328125	-761.198974609375	1418.28369140625	296.8326721191406	-834.1417236328125	1366.9833984375	294.8436889648438	-914.8817749023438	1109.223510742188	298.5435180664062	-828.6337280273438	1089.069091796875	265.171875	-883.054931640625	889.6921997070312	414.9609985351562	-959.35693359375	889.912353515625	376.6249389648438	-933.5670166015625	1045.314086914062	328.6338500976562	-910.5799560546875	779.1376953125	455.1516723632812	-965.27099609375	779.7673950195312	410.2939453125	-665.8780517578125	1589.288818359375	269.5616760253906	-502.6325988769531	1596.8916015625	406.2471008300781	-591.3380126953125	1605.543334960938	430.3226013183594	-525.6061401367188	1566.72265625	233.7919006347656	-474.5726013183594	939.6094970703125	241.3720397949219	-765.2733764648438	948.511474609375	411.728759765625	-515.4486083984375	945.5983276367188	381.9718933105469	-574.9854736328125	475.5161743164062	348.0636291503906	-525.9949951171875	612.6788330078125	328.5121154785156	-671.5537719726562	47.8915901184082	258.7184448242188	-616.8252563476562	249.0200347900391	304.6950073242188	-754.4447021484375	40.77495193481445	459.6254272460938	-783.5757446289062	30.30876350402832	382.509765625	-672.0735473632812	44.06219482421875	384.0776672363281	-726.8126220703125	40.34724044799805	208.5318298339844	-822.9908447265625	505.4938049316406	479.0064086914062	-842.4025268554688	753.9721069335938	405.0387878417969	-910.638671875	157.1775512695312	208.4765014648438	-831.6402587890625	388.4623413085938	442.9973449707031	-823.1383666992188	57.90292739868164	355.6668090820312	-794.5677490234375	77.22664642333984	296.45654296875	-911.96142578125	91.84933471679688	290.9249267578125	-871.5114135742188	183.7725219726562	154.5783081054688	-900.6069946289062	706.1519165039062	434.328857421875	-846.0228881835938	944.368896484375	298.8964233398438	nan	nan	nan	
455	4.54	-753.48828125	993.6922607421875	200.7419586181641	-578.2454223632812	988.5684204101562	184.8953399658203	-658.2548828125	1062.772338867188	209.1224365234375	-622.533447265625	1240.5654296875	452.70361328125	-654.3728637695312	1176.439697265625	188.0171966552734	-607.7998657226562	1418.594116210938	227.14501953125	-612.4309692382812	1338.098510742188	385.7155456542969	-703.4067993164062	1292.570434570312	181.9908294677734	-510.6338806152344	1369.386962890625	201.8413391113281	-453.8713073730469	1367.317138671875	288.7924194335938	-392.843994140625	1246.661376953125	261.6419677734375	-383.7527160644531	1046.304443359375	278.8789367675781	-439.8802185058594	1029.369873046875	212.9841918945312	-441.3075256347656	854.128173828125	399.0603637695312	-377.0982360839844	832.0746459960938	371.8945922851562	-379.067626953125	949.5222778320312	311.0596923828125	-447.9833068847656	673.0740356445312	448.4991760253906	-384.3264770507812	747.5698852539062	398.2343444824219	-425.9576416015625	764.0224609375	446.2719421386719	-761.4086303710938	1418.308471679688	305.7947692871094	-834.2398071289062	1366.969970703125	304.2462158203125	-914.2398071289062	1109.144653320312	304.2789916992188	-827.6539916992188	1089.668701171875	271.5060119628906	-885.4483642578125	886.0842895507812	414.7179260253906	-961.2383422851562	888.3394165039062	375.3499145507812	-933.4757080078125	1044.725708007812	332.5841369628906	-914.39892578125	774.2979125976562	450.4001770019531	-968.4273071289062	777.0835571289062	405.0786437988281	-666.5947875976562	1589.95263671875	278.2839050292969	-501.9281311035156	1596.947875976562	413.4011840820312	-590.479736328125	1605.371215820312	438.4305419921875	-526.5787963867188	1567.732421875	241.0151519775391	-476.4667663574219	939.5222778320312	244.7545318603516	-762.4862670898438	949.4228515625	422.3194580078125	-513.2413940429688	945.8751220703125	386.4470825195312	-574.6874389648438	475.3000183105469	350.0737915039062	-526.3779907226562	612.61962890625	331.0332641601562	-671.6604614257812	47.97779846191406	258.705322265625	-616.7417602539062	249.1592102050781	305.612060546875	-754.4650268554688	40.77402496337891	459.6952209472656	-783.63525390625	30.27613639831543	382.4642944335938	-672.05419921875	44.06130981445312	384.1095581054688	-727.10986328125	40.65116119384766	208.525146484375	-817.1620483398438	507.8976135253906	494.8443603515625	-839.1124877929688	755.7836303710938	419.3091430664062	-914.19482421875	147.7230834960938	243.1976776123047	-827.1974487304688	389.4248962402344	463.6344604492188	-820.9940795898438	57.49882888793945	392.8558959960938	-794.7297973632812	73.00984191894531	331.3330383300781	-912.4024658203125	87.72151184082031	329.6724548339844	-877.2434692382812	171.0654907226562	186.2973327636719	-904.7778930664062	702.0368041992188	427.1520690917969	-845.656982421875	945.00537109375	311.38330078125	nan	nan	nan	
456	4.55	-756.0379638671875	993.9387817382812	210.8314056396484	-581.1927490234375	988.603759765625	190.7864532470703	-659.9447631835938	1062.603515625	216.6394653320312	-619.7625732421875	1240.938720703125	459.9573974609375	-655.4689331054688	1176.884887695312	195.1649169921875	-608.781494140625	1419.21337890625	234.4676513671875	-611.1605834960938	1338.569946289062	392.8838500976562	-704.3727416992188	1292.705932617188	190.4230346679688	-511.6758422851562	1370.388305664062	208.0286560058594	-454.00439453125	1368.466674804688	294.3595275878906	-392.507568359375	1248.013061523438	267.3757934570312	-382.1999206542969	1048.173583984375	287.3619079589844	-437.7364501953125	1029.512939453125	221.3694305419922	-440.3233642578125	860.8235473632812	414.2116088867188	-375.8955993652344	837.8687744140625	388.5025939941406	-377.3689270019531	952.709716796875	322.6886901855469	-446.9451904296875	681.8611450195312	470.8607788085938	-383.1511840820312	754.3768310546875	418.3307189941406	-425.2011413574219	772.7661743164062	465.1295776367188	-761.5401000976562	1418.22216796875	314.7881469726562	-834.2799072265625	1366.877807617188	313.6631164550781	-913.7005004882812	1109.121948242188	309.9365234375	-826.787109375	1090.22998046875	277.7261962890625	-887.745361328125	882.7330932617188	414.3845825195312	-963.1132202148438	887.156494140625	374.2682189941406	-933.4255981445312	1044.263061523438	336.5645141601562	-918.0347900390625	769.8820190429688	445.5600280761719	-971.4650268554688	774.873291015625	400.0086059570312	-667.28759765625	1590.484252929688	286.9689331054688	-501.2531127929688	1596.984130859375	420.5184020996094	-589.6343994140625	1605.1435546875	446.4825439453125	-527.5473022460938	1568.655517578125	248.23828125	-478.3773498535156	939.4016723632812	248.2183990478516	-759.610107421875	950.3369140625	432.9857788085938	-511.0931396484375	946.0567016601562	390.8630981445312	-574.4810180664062	475.0909118652344	352.3622436523438	-526.7604370117188	612.5575561523438	333.8191833496094	-671.7799072265625	48.0916633605957	258.7142944335938	-616.677978515625	249.2857971191406	306.7148742675781	-754.4871826171875	40.76836013793945	459.7763061523438	-783.6959838867188	30.34528923034668	382.4933776855469	-672.05224609375	44.05292129516602	384.1371459960938	-727.3844604492188	40.97595977783203	208.5293121337891	-811.2587280273438	510.0283813476562	509.8447875976562	-835.7954711914062	757.4255981445312	433.2264709472656	-916.1550903320312	138.2806243896484	278.3778686523438	-822.4192504882812	390.3321533203125	483.7379150390625	-816.978759765625	57.33090591430664	429.5847778320312	-793.1127319335938	69.21844482421875	366.2255554199219	-910.9659423828125	83.76211547851562	368.3694152832031	-881.6130981445312	158.3948211669922	218.8043823242188	-908.7396850585938	698.4749145507812	419.8288269042969	-845.1388549804688	945.5669555664062	324.0082397460938	nan	nan	nan	
457	4.56	-758.5421142578125	994.1650390625	221.0479736328125	-584.2110595703125	988.5775756835938	196.7804718017578	-661.6510620117188	1062.476684570312	224.1860656738281	-616.9422607421875	1241.195922851562	467.1437683105469	-656.5498046875	1177.278076171875	202.2868041992188	-609.7257690429688	1419.757080078125	241.7992858886719	-609.832763671875	1338.910278320312	400.0385437011719	-705.31103515625	1292.738647460938	198.8566589355469	-512.6976318359375	1371.310791015625	214.2072448730469	-454.0913696289062	1369.572143554688	299.8864440917969	-392.0904846191406	1249.312622070312	272.9351806640625	-380.5922241210938	1049.995849609375	295.5685729980469	-435.7113037109375	1029.641235351562	229.697509765625	-438.9739685058594	867.7230224609375	429.0904541015625	-374.5535888671875	843.8139038085938	404.5018920898438	-375.6453857421875	955.9371337890625	333.941650390625	-445.6457214355469	691.1229858398438	492.7525939941406	-381.8371887207031	761.4810791015625	437.7006530761719	-423.9939575195312	781.795654296875	483.4750671386719	-761.5894165039062	1418.0224609375	323.8239440917969	-834.2604370117188	1366.71923828125	323.100341796875	-913.2645263671875	1109.161865234375	315.5339050292969	-826.0377807617188	1090.763427734375	283.8270263671875	-889.9151000976562	879.652099609375	413.9896545410156	-964.95556640625	886.3223876953125	373.4185485839844	-933.434326171875	1043.942138671875	340.6058044433594	-921.4675903320312	765.9368286132812	440.7807006835938	-974.3848876953125	773.1470947265625	395.1804504394531	-667.9473876953125	1590.8759765625	295.62451171875	-500.6098937988281	1596.998046875	427.6108703613281	-588.7947387695312	1604.85986328125	454.4861755371094	-528.5077514648438	1569.484985351562	255.4707336425781	-480.26171875	939.2415771484375	251.7650299072266	-756.6547241210938	951.2254638671875	443.656005859375	-509.0348815917969	946.132080078125	395.2384338378906	-574.3541259765625	474.8786926269531	354.9331970214844	-527.1300659179688	612.4791870117188	336.8553161621094	-671.9114990234375	48.23613739013672	258.7491760253906	-616.663818359375	249.3786926269531	307.9977416992188	-754.4993896484375	40.75554656982422	459.8667297363281	-783.7470703125	30.49750518798828	382.5893249511719	-672.0629272460938	44.0413818359375	384.1632385253906	-727.6259765625	41.32201766967773	208.5444946289062	-805.3468017578125	511.8753356933594	524.0733032226562	-832.4852294921875	758.8756713867188	446.7933654785156	-916.3970947265625	128.9873962402344	313.8895263671875	-817.2838134765625	391.1747131347656	503.3161926269531	-811.0020751953125	57.46475982666016	465.6618957519531	-789.614990234375	65.91236114501953	400.8836975097656	-907.5220336914062	80.01772308349609	406.85205078125	-884.4891357421875	145.9449920654297	251.9732055664062	-912.4656982421875	695.4749755859375	412.5224914550781	-844.53564453125	946.083984375	336.7206420898438	nan	nan	nan	
